<?xml version="1.0" encoding="UTF-8" standalone="no"?>
<!-- Created with Inkscape (http://www.inkscape.org/) -->

<svg
   xmlns:dc="http://purl.org/dc/elements/1.1/"
   xmlns:cc="http://creativecommons.org/ns#"
   xmlns:rdf="http://www.w3.org/1999/02/22-rdf-syntax-ns#"
   xmlns:svg="http://www.w3.org/2000/svg"
   xmlns="http://www.w3.org/2000/svg"
   xmlns:xlink="http://www.w3.org/1999/xlink"
   xmlns:sodipodi="http://sodipodi.sourceforge.net/DTD/sodipodi-0.dtd"
   xmlns:inkscape="http://www.inkscape.org/namespaces/inkscape"
   width="128"
   height="128"
   viewBox="0 0 128 128"
   id="svg2"
   version="1.1"
   inkscape:version="0.92.2 (5c3e80d, 2017-08-06)"
   sodipodi:docname="kingwhite.svg">
  <defs
     id="defs4">
    <linearGradient
       inkscape:collect="always"
       id="linearGradient7573">
      <stop
         style="stop-color:#ffffff;stop-opacity:1;"
         offset="0"
         id="stop7569" />
      <stop
         style="stop-color:#babdb6;stop-opacity:1"
         offset="1"
         id="stop7571" />
    </linearGradient>
    <linearGradient
       inkscape:collect="always"
       id="linearGradient7565">
      <stop
         style="stop-color:#ffffff;stop-opacity:1;"
         offset="0"
         id="stop7561" />
      <stop
         style="stop-color:#babdb6;stop-opacity:1"
         offset="1"
         id="stop7563" />
    </linearGradient>
    <linearGradient
       inkscape:collect="always"
       id="linearGradient7557">
      <stop
         style="stop-color:#ffffff;stop-opacity:1;"
         offset="0"
         id="stop7553" />
      <stop
         style="stop-color:#babdb6;stop-opacity:1"
         offset="1"
         id="stop7555" />
    </linearGradient>
    <linearGradient
       inkscape:collect="always"
       id="linearGradient7549">
      <stop
         style="stop-color:#ffffff;stop-opacity:1;"
         offset="0"
         id="stop7545" />
      <stop
         style="stop-color:#babdb6;stop-opacity:1"
         offset="1"
         id="stop7547" />
    </linearGradient>
    <linearGradient
       inkscape:collect="always"
       id="linearGradient7541">
      <stop
         style="stop-color:#ffffff;stop-opacity:1;"
         offset="0"
         id="stop7537" />
      <stop
         style="stop-color:#babdb6;stop-opacity:1"
         offset="1"
         id="stop7539" />
    </linearGradient>
    <linearGradient
       inkscape:collect="always"
       xlink:href="#linearGradient7541"
       id="linearGradient7543"
       x1="9.4003906"
       y1="988.60339"
       x2="118.57435"
       y2="988.60339"
       gradientUnits="userSpaceOnUse"
       gradientTransform="translate(0.00315045,0.08303)" />
    <linearGradient
       inkscape:collect="always"
       xlink:href="#linearGradient7549"
       id="linearGradient7551"
       x1="9.4003906"
       y1="94.45504"
       x2="118.61716"
       y2="94.45504"
       gradientUnits="userSpaceOnUse"
       gradientTransform="translate(0.00315045,0.08303)" />
    <linearGradient
       inkscape:collect="always"
       xlink:href="#linearGradient7557"
       id="linearGradient7559"
       x1="75.130096"
       y1="971.04486"
       x2="50.469757"
       y2="946.38452"
       gradientUnits="userSpaceOnUse"
       gradientTransform="translate(0.00315045,0.08303)" />
    <linearGradient
       inkscape:collect="always"
       xlink:href="#linearGradient7565"
       id="linearGradient7567"
       x1="48.260036"
       y1="938.51794"
       x2="85.559929"
       y2="975.81781"
       gradientUnits="userSpaceOnUse"
       gradientTransform="translate(0.00315045,0.08303)" />
    <linearGradient
       inkscape:collect="always"
       xlink:href="#linearGradient7573"
       id="linearGradient7575"
       x1="91.923882"
       y1="983.59601"
       x2="41.18898"
       y2="932.86108"
       gradientUnits="userSpaceOnUse"
       gradientTransform="translate(0.00315045,0.08303)" />
  </defs>
  <sodipodi:namedview
     id="base"
     pagecolor="#ffffff"
     bordercolor="#666666"
     borderopacity="1.0"
     inkscape:pageopacity="0.0"
     inkscape:pageshadow="2"
     inkscape:zoom="5.6568543"
     inkscape:cx="60.229135"
     inkscape:cy="69.095686"
     inkscape:document-units="px"
     inkscape:current-layer="layer1"
     showgrid="false"
     units="px"
     inkscape:snap-page="true"
     inkscape:window-width="956"
     inkscape:window-height="1196"
     inkscape:window-x="0"
     inkscape:window-y="0"
     inkscape:window-maximized="0" />
  <metadata
     id="metadata7">
    <rdf:RDF>
      <cc:Work
         rdf:about="">
        <dc:format>image/svg+xml</dc:format>
        <dc:type
           rdf:resource="http://purl.org/dc/dcmitype/StillImage" />
        <dc:title />
      </cc:Work>
    </rdf:RDF>
  </metadata>
  <g
     inkscape:label="Layer 1"
     inkscape:groupmode="layer"
     id="layer1"
     transform="translate(0,-924.36216)">
    <g
       id="g7592"
       transform="translate(-0.00315045,-0.08303)">
      <path
         inkscape:connector-curvature="0"
         id="path3382"
         d="m 64,926.91948 c -33.432921,0 -60.5996094,14.08709 -60.5996094,31.42349 0,17.33638 27.1666884,31.42447 60.5996094,31.42447 33.432921,0 60.59961,-14.08809 60.59961,-31.42447 0,-17.3364 -27.166689,-31.42349 -60.59961,-31.42349 z m 0,3.11126 c 30.19028,0 54.59961,12.65728 54.59961,28.31223 0,15.65495 -24.40933,28.31327 -54.59961,28.31327 -30.19028,0 -54.5996094,-12.65832 -54.5996094,-28.31327 0,-15.65495 24.4093294,-28.31223 54.5996094,-28.31223 z"
         style="color:#000000;font-style:normal;font-variant:normal;font-weight:normal;font-stretch:normal;font-size:medium;line-height:normal;font-family:sans-serif;font-variant-ligatures:normal;font-variant-position:normal;font-variant-caps:normal;font-variant-numeric:normal;font-variant-alternates:normal;font-feature-settings:normal;text-indent:0;text-align:start;text-decoration:none;text-decoration-line:none;text-decoration-style:solid;text-decoration-color:#000000;letter-spacing:normal;word-spacing:normal;text-transform:none;writing-mode:lr-tb;direction:ltr;text-orientation:mixed;dominant-baseline:auto;baseline-shift:baseline;text-anchor:start;white-space:normal;shape-padding:0;clip-rule:nonzero;display:inline;overflow:visible;visibility:visible;opacity:1;isolation:auto;mix-blend-mode:normal;color-interpolation:sRGB;color-interpolation-filters:linearRGB;solid-color:#000000;solid-opacity:1;vector-effect:none;fill:#666666;fill-opacity:1;fill-rule:nonzero;stroke:none;stroke-width:4.32059526;stroke-linecap:butt;stroke-linejoin:miter;stroke-miterlimit:4;stroke-dasharray:none;stroke-dashoffset:0;stroke-opacity:1;color-rendering:auto;image-rendering:auto;shape-rendering:auto;text-rendering:auto;enable-background:accumulate" />
      <path
         inkscape:connector-curvature="0"
         id="circle4222"
         d="m 64,934.24592 c -25.629508,0 -46.470703,10.80706 -46.470703,24.09705 0,13.28998 20.841195,24.09704 46.470703,24.09704 25.629508,0 46.4707,-10.80706 46.4707,-24.09704 0,-13.28999 -20.841192,-24.09705 -46.4707,-24.09705 z m 0,3.11126 c 22.386867,0 40.4707,9.37724 40.4707,20.98579 0,11.60856 -18.083833,20.98578 -40.4707,20.98578 -22.386867,0 -40.470703,-9.37722 -40.470703,-20.98578 0,-11.60855 18.083836,-20.98579 40.470703,-20.98579 z"
         style="color:#000000;font-style:normal;font-variant:normal;font-weight:normal;font-stretch:normal;font-size:medium;line-height:normal;font-family:sans-serif;font-variant-ligatures:normal;font-variant-position:normal;font-variant-caps:normal;font-variant-numeric:normal;font-variant-alternates:normal;font-feature-settings:normal;text-indent:0;text-align:start;text-decoration:none;text-decoration-line:none;text-decoration-style:solid;text-decoration-color:#000000;letter-spacing:normal;word-spacing:normal;text-transform:none;writing-mode:lr-tb;direction:ltr;text-orientation:mixed;dominant-baseline:auto;baseline-shift:baseline;text-anchor:start;white-space:normal;shape-padding:0;clip-rule:nonzero;display:inline;overflow:visible;visibility:visible;opacity:1;isolation:auto;mix-blend-mode:normal;color-interpolation:sRGB;color-interpolation-filters:linearRGB;solid-color:#000000;solid-opacity:1;vector-effect:none;fill:#666666;fill-opacity:1;fill-rule:nonzero;stroke:none;stroke-width:4.32059526;stroke-linecap:butt;stroke-linejoin:miter;stroke-miterlimit:4;stroke-dasharray:none;stroke-dashoffset:0;stroke-opacity:1;color-rendering:auto;image-rendering:auto;shape-rendering:auto;text-rendering:auto;enable-background:accumulate" />
      <path
         inkscape:connector-curvature="0"
         id="circle822"
         d="m 64,941.27259 c -18.146327,0 -32.921875,7.66073 -32.921875,17.07038 0,9.40968 14.775548,17.07141 32.921875,17.07141 18.146327,0 32.921875,-7.66173 32.921875,-17.07141 0,-9.40965 -14.775548,-17.07038 -32.921875,-17.07038 z m 0,3.11125 c 14.903686,0 26.921875,6.23093 26.921875,13.95913 0,7.7282 -12.018189,13.96015 -26.921875,13.96015 -14.903686,0 -26.921875,-6.23195 -26.921875,-13.96015 0,-7.7282 12.018189,-13.95913 26.921875,-13.95913 z"
         style="color:#000000;font-style:normal;font-variant:normal;font-weight:normal;font-stretch:normal;font-size:medium;line-height:normal;font-family:sans-serif;font-variant-ligatures:normal;font-variant-position:normal;font-variant-caps:normal;font-variant-numeric:normal;font-variant-alternates:normal;font-feature-settings:normal;text-indent:0;text-align:start;text-decoration:none;text-decoration-line:none;text-decoration-style:solid;text-decoration-color:#000000;letter-spacing:normal;word-spacing:normal;text-transform:none;writing-mode:lr-tb;direction:ltr;text-orientation:mixed;dominant-baseline:auto;baseline-shift:baseline;text-anchor:start;white-space:normal;shape-padding:0;clip-rule:nonzero;display:inline;overflow:visible;visibility:visible;opacity:1;isolation:auto;mix-blend-mode:normal;color-interpolation:sRGB;color-interpolation-filters:linearRGB;solid-color:#000000;solid-opacity:1;vector-effect:none;fill:#666666;fill-opacity:1;fill-rule:nonzero;stroke:none;stroke-width:4.32059526;stroke-linecap:butt;stroke-linejoin:miter;stroke-miterlimit:4;stroke-dasharray:none;stroke-dashoffset:0;stroke-opacity:1;color-rendering:auto;image-rendering:auto;shape-rendering:auto;text-rendering:auto;enable-background:accumulate" />
      <path
         sodipodi:nodetypes="csccsc"
         style="color:#000000;font-style:normal;font-variant:normal;font-weight:normal;font-stretch:normal;font-size:medium;line-height:normal;font-family:sans-serif;font-variant-ligatures:normal;font-variant-position:normal;font-variant-caps:normal;font-variant-numeric:normal;font-variant-alternates:normal;font-feature-settings:normal;text-indent:0;text-align:start;text-decoration:none;text-decoration-line:none;text-decoration-style:solid;text-decoration-color:#000000;letter-spacing:normal;word-spacing:normal;text-transform:none;writing-mode:lr-tb;direction:ltr;text-orientation:mixed;dominant-baseline:auto;baseline-shift:baseline;text-anchor:start;white-space:normal;shape-padding:0;clip-rule:nonzero;display:inline;overflow:visible;visibility:visible;opacity:1;isolation:auto;mix-blend-mode:normal;color-interpolation:sRGB;color-interpolation-filters:linearRGB;solid-color:#000000;solid-opacity:1;vector-effect:none;fill:#666666;fill-opacity:1;fill-rule:nonzero;stroke:none;stroke-width:4.32059526;stroke-linecap:butt;stroke-linejoin:miter;stroke-miterlimit:4;stroke-dasharray:none;stroke-dashoffset:0;stroke-opacity:1;color-rendering:auto;image-rendering:auto;shape-rendering:auto;text-rendering:auto;enable-background:accumulate"
         d="m 3.4003906,988.33254 c 0,17.33636 27.1666884,31.42456 60.5996094,31.42456 33.432921,0 60.59961,-14.0882 60.59961,-31.42456 m -6,0 c 0,15.65496 -24.40933,28.31326 -54.59961,28.31326 -30.19028,0 -54.5996094,-12.6583 -54.5996094,-28.31326"
         id="path830"
         inkscape:connector-curvature="0" />
      <path
         inkscape:connector-curvature="0"
         id="path832"
         d="m 3.4003906,1018.5464 c 0,17.3363 27.1666884,31.4245 60.5996094,31.4245 33.432921,0 60.59961,-14.0882 60.59961,-31.4245 m -6,0 c 0,15.6549 -24.40933,28.3132 -54.59961,28.3132 -30.19028,0 -54.5996094,-12.6583 -54.5996094,-28.3132"
         style="color:#000000;font-style:normal;font-variant:normal;font-weight:normal;font-stretch:normal;font-size:medium;line-height:normal;font-family:sans-serif;font-variant-ligatures:normal;font-variant-position:normal;font-variant-caps:normal;font-variant-numeric:normal;font-variant-alternates:normal;font-feature-settings:normal;text-indent:0;text-align:start;text-decoration:none;text-decoration-line:none;text-decoration-style:solid;text-decoration-color:#000000;letter-spacing:normal;word-spacing:normal;text-transform:none;writing-mode:lr-tb;direction:ltr;text-orientation:mixed;dominant-baseline:auto;baseline-shift:baseline;text-anchor:start;white-space:normal;shape-padding:0;clip-rule:nonzero;display:inline;overflow:visible;visibility:visible;opacity:1;isolation:auto;mix-blend-mode:normal;color-interpolation:sRGB;color-interpolation-filters:linearRGB;solid-color:#000000;solid-opacity:1;vector-effect:none;fill:#666666;fill-opacity:1;fill-rule:nonzero;stroke:none;stroke-width:4.32059526;stroke-linecap:butt;stroke-linejoin:miter;stroke-miterlimit:4;stroke-dasharray:none;stroke-dashoffset:0;stroke-opacity:1;color-rendering:auto;image-rendering:auto;shape-rendering:auto;text-rendering:auto;enable-background:accumulate"
         sodipodi:nodetypes="csccsc" />
      <rect
         y="958.38959"
         x="3.4047096"
         height="30.213821"
         width="5.9956808"
         id="rect838"
         style="opacity:1;fill:#666666;fill-opacity:1;stroke:none;stroke-width:1.99863982;stroke-linecap:square;stroke-linejoin:miter;stroke-miterlimit:4;stroke-dasharray:none;stroke-opacity:1;paint-order:markers fill stroke" />
      <rect
         style="opacity:1;fill:#666666;fill-opacity:1;stroke:none;stroke-width:2.00461125;stroke-linecap:square;stroke-linejoin:miter;stroke-miterlimit:4;stroke-dasharray:none;stroke-opacity:1;paint-order:markers fill stroke"
         id="rect859"
         width="6.0315619"
         height="30.213821"
         x="118.57435"
         y="958.38959" />
      <path
         inkscape:connector-curvature="0"
         id="path880"
         d="m 59.716483,972.06821 c -8.784224,-0.92577 -15.298602,-3.33381 -19.246816,-7.11459 -2.373409,-2.27276 -3.421127,-4.55487 -3.245728,-7.06977 0.111586,-1.59994 0.447259,-2.52967 1.485984,-4.11582 2.860423,-4.36791 9.917254,-7.68705 18.973628,-8.92413 3.039226,-0.41516 9.514729,-0.41493 12.551145,4.3e-4 4.75296,0.65017 8.859371,1.79414 12.120696,3.3766 4.725628,2.29296 7.92233,5.74747 8.377304,9.05289 0.922654,6.70317 -6.921035,12.46906 -19.702505,14.48329 -1.707567,0.26909 -9.64206,0.48727 -11.313708,0.3111 z"
         style="opacity:1;fill:url(#linearGradient7559);fill-opacity:1;stroke:#babdb6;stroke-width:0.35355338;stroke-linecap:square;stroke-linejoin:miter;stroke-miterlimit:4;stroke-dasharray:none;stroke-opacity:1;paint-order:markers fill stroke" />
      <path
         inkscape:connector-curvature="0"
         id="path882"
         d="m 58.54544,979.06074 c -6.556745,-0.44458 -13.509099,-1.94073 -18.928402,-4.07339 -8.694883,-3.4217 -14.329599,-8.48451 -15.716011,-14.12089 -0.379605,-1.54327 -0.301573,-4.09626 0.172903,-5.65686 2.738043,-9.00566 16.088503,-15.99309 33.432844,-17.49825 2.855866,-0.24784 10.271051,-0.24888 12.993087,-0.002 8.345868,0.75745 15.181141,2.52163 21.213203,5.47509 7.91888,3.87731 12.280066,8.90417 12.593206,14.51539 0.21737,3.89526 -1.36013,7.29981 -4.962268,10.70954 -7.982631,7.55622 -24.159286,11.77943 -40.798562,10.6512 z m 9.302771,-3.70561 c 7.271762,-0.48901 13.509011,-2.01244 18.738329,-4.5768 3.037494,-1.48953 5.166237,-2.98419 6.949847,-4.8797 2.385365,-2.53502 3.225639,-4.35119 3.351545,-7.24401 0.06807,-1.56398 0.02307,-1.93065 -0.386774,-3.15155 -1.502515,-4.47591 -5.890364,-8.18161 -13.000096,-10.97906 -3.018425,-1.18765 -7.442081,-2.26543 -11.675376,-2.8446 -2.861767,-0.39153 -9.799667,-0.53544 -12.934616,-0.26831 -8.254698,0.70339 -15.789797,3.00666 -20.883453,6.38347 -1.848204,1.22526 -4.176182,3.45849 -5.181336,4.97046 -1.295981,1.94943 -1.739538,3.39377 -1.727921,5.62655 0.008,1.54155 0.08576,2.05815 0.458631,3.04791 0.692155,1.83725 1.507474,3.05922 3.145603,4.71451 6.337015,6.40341 19.677904,10.10681 33.145617,9.20113 z"
         style="opacity:1;fill:url(#linearGradient7567);fill-opacity:1;stroke:#babdb6;stroke-width:0.35355338;stroke-linecap:square;stroke-linejoin:miter;stroke-miterlimit:4;stroke-dasharray:none;stroke-opacity:1;paint-order:markers fill stroke" />
      <path
         inkscape:connector-curvature="0"
         id="path884"
         d="m 56.357725,986.30721 c -18.063101,-1.45493 -32.742892,-6.90134 -40.923804,-15.1833 -6.7480143,-6.83136 -7.7851119,-14.79066 -2.884676,-22.13871 1.076416,-1.61405 3.95863,-4.62616 5.801491,-6.06294 8.696176,-6.77996 21.280143,-11.00433 37.211494,-12.4917 3.654689,-0.3412 14.042939,-0.28799 17.854446,0.0915 11.364727,1.13139 20.696798,3.62042 28.637824,7.63822 10.17591,5.14855 15.97515,11.97734 16.38846,19.29794 0.2055,3.6397 -0.73665,6.80224 -3.09555,10.39097 -0.99718,1.51708 -4.5799,5.13936 -6.46066,6.53202 -8.8111,6.52442 -22.351113,10.83391 -37.503006,11.9364 -2.845176,0.20703 -12.409138,0.20044 -15.026019,-0.0103 z m 14.495689,-4.05697 c 14.911274,-1.26055 27.371646,-5.84426 34.246236,-12.59793 6.00449,-5.89887 7.07241,-12.81959 2.94769,-19.10259 -5.35972,-8.1642 -18.480997,-14.09229 -35.33777,-15.96532 -3.853216,-0.42815 -13.642457,-0.42639 -17.500893,0.003 -17.268691,1.92239 -30.540355,8.1055 -35.683191,16.62438 -1.91309,3.16894 -2.526018,7.04113 -1.64394,10.38563 1.472498,5.58314 6.65249,10.69498 14.75114,14.55706 7.038217,3.35637 15.169664,5.33547 25.31603,6.1616 1.754248,0.14283 10.993429,0.0956 12.904698,-0.066 z"
         style="opacity:1;fill:url(#linearGradient7575);fill-opacity:1;stroke:#babdb6;stroke-width:0.35355338;stroke-linecap:square;stroke-linejoin:miter;stroke-miterlimit:4;stroke-dasharray:none;stroke-opacity:1;paint-order:markers fill stroke" />
      <path
         inkscape:connector-curvature="0"
         id="path886"
         d="M 57.418386,1016.3677 C 34.584676,1014.8013 16.37509,1006.3779 10.992601,994.89185 9.5739649,991.86456 9.5488409,991.6404 9.4688768,981.297 l -0.070967,-9.17956 1.4998722,1.41976 c 8.906242,8.4305 24.531615,14.15249 43.42701,15.90292 4.046617,0.37487 14.356475,0.43023 18.296389,0.0982 19.124212,-1.61145 34.424529,-7.03367 44.116729,-15.63436 l 1.7769,-1.57679 -0.063,9.33984 c -0.0613,9.07986 -0.0741,9.37674 -0.46071,10.66566 -1.50988,5.03391 -5.09026,9.35343 -11.0548,13.33653 -8.168439,5.455 -19.702525,9.0869 -33.166041,10.4435 -3.265875,0.329 -13.048457,0.4816 -16.351844,0.255 z"
         style="opacity:1;fill:#ffffff;fill-opacity:1;stroke:none;stroke-width:0.35355338;stroke-linecap:square;stroke-linejoin:miter;stroke-miterlimit:4;stroke-dasharray:none;stroke-opacity:1;paint-order:markers fill stroke" />
      <rect
         style="opacity:1;fill:#666666;fill-opacity:1;stroke:none;stroke-width:1.99863982;stroke-linecap:square;stroke-linejoin:miter;stroke-miterlimit:4;stroke-dasharray:none;stroke-opacity:1;paint-order:markers fill stroke"
         id="rect1466"
         width="5.9956808"
         height="30.213821"
         x="3.4047096"
         y="988.60339" />
      <rect
         y="988.60339"
         x="118.57435"
         height="30.213821"
         width="6.0315619"
         id="rect1468"
         style="opacity:1;fill:#666666;fill-opacity:1;stroke:none;stroke-width:2.00461125;stroke-linecap:square;stroke-linejoin:miter;stroke-miterlimit:4;stroke-dasharray:none;stroke-opacity:1;paint-order:markers fill stroke" />
      <path
         style="opacity:1;fill:url(#linearGradient7543);fill-opacity:1;stroke:#babdb6;stroke-width:0.35355338;stroke-linecap:square;stroke-linejoin:miter;stroke-miterlimit:4;stroke-dasharray:none;stroke-opacity:1;paint-order:markers fill stroke"
         d="M 57.418386,1016.3677 C 34.584676,1014.8013 16.37509,1006.3779 10.992601,994.89185 9.5739649,991.86456 9.5488409,991.6404 9.4688768,981.297 l -0.070967,-9.17956 1.4998722,1.41976 c 8.906242,8.4305 24.531615,14.15249 43.42701,15.90292 4.046617,0.37487 14.356475,0.43023 18.296389,0.0982 19.124212,-1.61145 34.424529,-7.03367 44.116729,-15.63436 l 1.7769,-1.57679 -0.063,9.33984 c -0.0613,9.07986 -0.0741,9.37674 -0.46071,10.66566 -1.50988,5.03391 -5.09026,9.35343 -11.0548,13.33653 -8.168439,5.455 -19.702525,9.0869 -33.166041,10.4435 -3.265875,0.329 -13.048457,0.4816 -16.351844,0.255 z"
         id="path1470"
         inkscape:connector-curvature="0" />
      <path
         transform="translate(0,924.36216)"
         inkscape:connector-curvature="0"
         id="path1472"
         d="m 60.423589,122.36812 c -0.729204,-0.0329 -2.558843,-0.1472 -4.065864,-0.25396 C 31.786049,120.37358 12.439949,110.00495 9.7926632,97.157405 9.5577963,96.017572 9.511901,94.331313 9.511901,86.841798 v -8.95304 l 1.412138,1.328438 c 4.668879,4.392146 12.22636,8.575076 20.331395,11.253061 6.961217,2.300055 14.744165,3.845254 23.334524,4.632753 3.919841,0.359341 15.862245,0.306595 19.79899,-0.08745 12.665199,-1.267703 23.147805,-4.064288 31.941242,-8.521395 4.23593,-2.147055 7.57914,-4.421404 10.99831,-7.482033 l 1.25462,-1.123059 v 8.287153 c 0,9.061029 -0.0981,10.458104 -0.90438,12.874072 -3.62557,10.864382 -19.427214,19.725002 -40.019424,22.440492 -1.847316,0.24361 -4.432675,0.52186 -5.745242,0.61833 -2.682134,0.19714 -9.47128,0.35017 -11.490485,0.259 z"
         style="opacity:1;fill:url(#linearGradient7551);fill-opacity:1;stroke:#babdb6;stroke-width:0.35355338;stroke-linecap:square;stroke-linejoin:miter;stroke-miterlimit:4;stroke-dasharray:none;stroke-opacity:1;paint-order:markers fill stroke" />
    </g>
  </g>
</svg>
